# xmcd
#
# Track frame offsets: 
#        150
#        9020
#        19726
#        31170
#        40049
#        49654
#        60995
#        72513
#        84885
#        94666
#        107236
#        118208
#        128246
#        139065
#        149329
#        159082
#        171308
#        183308
#        197438
#        208377
#        219247
#        231081
#        240371
#        253393
#        262522
#
# Disc length: 3656 seconds
#
# Revision: 1
# Processed by: cddbd v1.5.2PL0 Copyright (c) Steve Scherf et al.
# Submitted via: ExactAudioCopy v1.1
#
DISCID=4b0e4619
DTITLE=Skeeter Davis - Let Me Get Close To You [Expanded]
DYEAR=2017
DGENRE=Pop
TTITLE0=Now I Lay Me Down To Weep (stereo)
TTITLE1=Gonna Get Along Without You Now (stereo)
TTITLE2=Didn't I (stereo)
TTITLE3=My Sweet Loving Man (stereo)
TTITLE4=I Can't Stay Mad At You (stereo)
TTITLE5=My Happiness (stereo)
TTITLE6=Let Me Get Close To You (stereo)
TTITLE7=Another You (stereo)
TTITLE8=Ladder Of Success (stereo)
TTITLE9=He Says The Same Things To Me (stereo)
TTITLE10=Ask Me (stereo)
TTITLE11=Easy To Love (So Hard To Get) (stereo)
TTITLE12=Don't Let Me Stand In Your Way (stereo)
TTITLE13=La, La, La (stereo)
TTITLE14=I Don't Want To Love You (stereo)
TTITLE15=What Am I Gonna Do With You (stereo)
TTITLE16=Sunglasses (stereo)
TTITLE17=On And On And On (stereo)
TTITLE18=The Face Of A Clown (stereo)
TTITLE19=Now You're Gone (stereo)
TTITLE20=It Was Only A Heart (stereo)
TTITLE21=How Much Can A Lonely Heart Stand (stereo)
TTITLE22=Somebody Else On Your Mind (stereo)
TTITLE23=I'm Saving My Love (stereo)
TTITLE24=The End Of The World (stereo)
EXTD=
EXTT0=
EXTT1=
EXTT2=
EXTT3=
EXTT4=
EXTT5=
EXTT6=
EXTT7=
EXTT8=
EXTT9=
EXTT10=
EXTT11=
EXTT12=
EXTT13=
EXTT14=
EXTT15=
EXTT16=
EXTT17=
EXTT18=
EXTT19=
EXTT20=
EXTT21=
EXTT22=
EXTT23=
EXTT24=
PLAYORDER=
